<svg xmlns="http://www.w3.org/2000/svg" width="26" height="30" viewBox="0 0 20 22" fill="none" class="icon icon-cart">
<path d="M5.2508 6.66156V5.69156C5.2508 3.44156 7.0608 1.23156 9.3108 1.02156C9.93598 0.960141 10.5671 1.03029 11.1635 1.2275C11.7599 1.42471 12.3085 1.74461 12.7738 2.16661C13.2391 2.58861 13.6109 3.10336 13.8653 3.67773C14.1197 4.25211 14.251 4.87338 14.2508 5.50156V6.88156M1.5608 15.5516L1.7908 17.4216C2.0108 19.3816 2.7308 20.9916 6.7508 20.9916H12.7508C16.7708 20.9916 17.4908 19.3816 17.7008 17.4216L18.4508 11.4216C18.7208 8.98156 18.0208 6.99156 13.7508 6.99156H5.7508C1.4808 6.99156 0.780803 8.98156 1.0508 11.4216" stroke="black" stroke-width="1.5" stroke-miterlimit="10" stroke-linecap="round" stroke-linejoin="round"></path>
</svg>